HIERARCHY
ROOT Hips
{
    OFFSET 0.000000 0.000000 0.000000
    CHANNELS 6 Xposition Yposition Zposition Zrotation Xrotation Yrotation
    JOINT Spine
    {
        OFFSET -0.000000 14.517291 0.000000
        CHANNELS 3 Zrotation Xrotation Yrotation
        JOINT Spine1
        {
            OFFSET -0.000000 37.558300 0.000000
            CHANNELS 3 Zrotation Xrotation Yrotation
            JOINT Neck
            {
                OFFSET -0.000000 37.404057 3.400369
                CHANNELS 3 Zrotation Xrotation Yrotation
                JOINT Head
                {
                    OFFSET -0.000000 24.785618 -3.540803
                    CHANNELS 3 Zrotation Xrotation Yrotation
                    End Site
                    {
                        OFFSET -0.000000 35.408028 0.000000
                    }
                }
            }
            JOINT LeftShoulder
            {
                OFFSET 6.992933 33.973492 -0.192664
                CHANNELS 3 Zrotation Xrotation Yrotation
                JOINT LeftArm
                {
                    OFFSET 21.527611 0.000000 0.000000
                    CHANNELS 3 Zrotation Xrotation Yrotation
                    JOINT LeftForeArm
                    {
                        OFFSET 56.353916 0.000000 0.000000
                        CHANNELS 3 Zrotation Xrotation Yrotation
                        JOINT LeftHand
                        {
                            OFFSET 47.774071 0.000000 0.000000
                            CHANNELS 3 Zrotation Xrotation Yrotation
                            End Site
                            {
                                OFFSET 26.556021 0.000000 0.000000
                            }
                        }
                    }
                }
            }
            JOINT RightShoulder
            {
                OFFSET -7.065357 33.973492 -0.192664
                CHANNELS 3 Zrotation Xrotation Yrotation
                JOINT RightArm
                {
                    OFFSET -21.527611 0.000000 0.000000
                    CHANNELS 3 Zrotation Xrotation Yrotation
                    JOINT RightForeArm
                    {
                        OFFSET -56.353916 0.000000 0.000000
                        CHANNELS 3 Zrotation Xrotation Yrotation
                        JOINT RightHand
                        {
                            OFFSET -47.774071 0.000000 0.000000
                            CHANNELS 3 Zrotation Xrotation Yrotation
                            End Site
                            {
                                OFFSET -26.556021 0.000000 0.000000
                            }
                        }
                    }
                }
            }
        }
    }
    JOINT LeftUpLeg
    {
        OFFSET 17.704014 0.000000 0.000000
        CHANNELS 3 Zrotation Xrotation Yrotation
        JOINT LeftLeg
        {
            OFFSET -0.000000 -81.181816 0.000000
            CHANNELS 3 Zrotation Xrotation Yrotation
            JOINT LeftFoot
            {
                OFFSET -0.000000 -62.821102 0.000000
                CHANNELS 3 Zrotation Xrotation Yrotation
                JOINT LeftToeBase
                {
                    OFFSET -0.000000 -11.507608 26.556021
                    CHANNELS 3 Zrotation Xrotation Yrotation
                    End Site
                    {
                        OFFSET -0.000000 0.000000 7.081605
                    }
                }
            }
        }
    }
    JOINT RightUpLeg
    {
        OFFSET -17.704014 0.000000 0.000000
        CHANNELS 3 Zrotation Xrotation Yrotation
        JOINT RightLeg
        {
            OFFSET -0.000000 -81.181816 0.000000
            CHANNELS 3 Zrotation Xrotation Yrotation
            JOINT RightFoot
            {
                OFFSET -0.000000 -62.821102 0.000000
                CHANNELS 3 Zrotation Xrotation Yrotation
                JOINT RightToeBase
                {
                    OFFSET -0.000000 -11.507608 26.556021
                    CHANNELS 3 Zrotation Xrotation Yrotation
                    End Site
                    {
                        OFFSET -0.000000 0.000000 7.081605
                    }
                }
            }
        }
    }
}
MOTION
Frames:    10
Frame Time:    0.008333
1.573296    156.328995    -15.532011    0.379548    -5.610910    -33.926846    6.418674    -0.126194    10.301887    -2.973485    2.260748    3.490533    12.278092    -1.516927    8.478002    -8.828218    10.987830    6.418772    -2.877666    3.976834    -6.733019    -45.316334    2.443371    -35.403782    7.388915    -40.798130    -103.980309    -9.807144    -32.424759    -11.181056    -13.057283    3.290140    10.477426    38.509995    -7.258763    93.101860    4.136328    -16.018425    30.023211    13.154776    -12.270382    41.247505    15.786634    -12.775954    1.136611    -12.806152    20.102783    -7.424516    -6.493514    -3.069988    41.261372    0.000000    0.000000    0.000000    -14.853902    3.823923    9.041001    1.313873    25.071415    5.692094    7.121790    -26.222118    9.777109    0.000000    0.000000    0.000000    
1.572729    156.323196    -15.499380    0.399978    -5.613064    -33.898727    6.455349    -0.164643    10.299403    -3.022537    2.307175    3.491151    12.264783    -1.531917    8.471539    -8.788022    10.958217    6.412132    -2.886712    3.960874    -6.730458    -45.323135    2.460623    -35.411324    7.358892    -40.790035    -104.008698    -9.788157    -32.447159    -11.164410    -13.051841    3.307831    10.485109    38.526321    -7.280182    93.126640    4.116940    -16.030254    30.053911    13.129434    -12.285927    41.263489    15.745695    -12.767438    1.147804    -12.767628    20.078796    -7.451984    -6.477748    -3.075408    41.235699    0.000000    0.000000    0.000000    -14.885441    3.846446    8.969932    1.305284    25.044029    5.678519    7.153355    -26.225594    9.838136    0.000000    0.000000    0.000000    
1.527018    156.328293    -15.489912    0.413450    -5.645689    -33.923393    6.379858    -0.281214    10.365946    -2.947690    2.476301    3.513989    12.303882    -1.487158    8.453922    -8.815467    10.859955    6.383215    -2.858479    3.968626    -6.846334    -45.379623    2.389560    -35.436459    7.344857    -40.772789    -103.999222    -9.811978    -32.442184    -11.170190    -13.023771    3.312343    10.514096    38.492126    -7.361826    93.089828    4.092478    -16.052147    30.063425    13.144587    -12.295636    41.269573    15.727553    -12.691031    1.214328    -12.740203    20.014013    -7.477091    -6.490206    -3.048191    41.211945    0.000000    0.000000    0.000000    -14.899458    3.876977    8.958668    1.266934    25.034266    5.700447    7.158113    -26.248749    9.884007    0.000000    0.000000    0.000000    
1.522955    156.329269    -15.457116    0.432723    -5.654488    -33.899448    6.402225    -0.307366    10.360876    -2.991621    2.508137    3.513578    12.298237    -1.507612    8.456705    -8.768727    10.856175    6.386722    -2.865750    3.962275    -6.841662    -45.379700    2.430808    -35.440132    7.364175    -40.812107    -104.004501    -9.823432    -32.463455    -11.167204    -13.015910    3.307108    10.525791    38.546371    -7.356273    93.104492    4.102158    -16.057365    30.084612    13.116755    -12.315862    41.260258    15.676001    -12.664451    1.228177    -12.683870    19.971758    -7.501953    -6.491320    -3.050630    41.183582    0.000000    0.000000    0.000000    -14.932018    3.904340    8.908031    1.269963    25.011454    5.722938    7.153696    -26.248819    9.876716    0.000000    0.000000    0.000000    
1.469499    156.344086    -15.447241    0.444501    -5.685161    -33.921074    6.337403    -0.311846    10.396771    -2.961940    2.530995    3.525438    12.303340    -1.517314    8.452049    -8.736053    10.836898    6.380028    -2.853042    3.960462    -6.845321    -45.414711    2.427397    -35.452106    7.323203    -40.786659    -104.053307    -9.801247    -32.477253    -11.131969    -12.989649    3.305975    10.517225    38.558514    -7.346681    93.119057    4.107331    -16.072552    30.104940    13.120634    -12.332358    41.257050    15.656290    -12.586077    1.282201    -12.646706    19.902117    -7.543350    -6.520739    -3.017571    41.172935    0.000000    0.000000    0.000000    -14.933922    3.942751    8.910265    1.232651    24.986105    5.737610    7.149986    -26.256029    9.881461    0.000000    0.000000    0.000000    
1.467844    156.351028    -15.424477    0.465253    -5.670402    -33.887524    6.379582    -0.333822    10.385571    -3.036048    2.528034    3.522828    12.331796    -1.528116    8.462629    -8.724802    10.845988    6.386442    -2.839715    3.972235    -6.824383    -45.423512    2.464598    -35.473625    7.339245    -40.810982    -104.066620    -9.779078    -32.488186    -11.111313    -12.967032    3.303978    10.512764    38.606449    -7.323997    93.140587    4.129234    -16.068026    30.109728    13.111665    -12.337700    41.252140    15.621453    -12.591725    1.240404    -12.617035    19.852465    -7.527950    -6.515295    -3.007480    41.166023    0.000000    0.000000    0.000000    -14.948366    3.948901    8.859983    1.230206    24.962933    5.764683    7.141529    -26.240196    9.873100    0.000000    0.000000    0.000000    
1.415117    156.370392    -15.423375    0.467161    -5.689834    -33.901474    6.330814    -0.315672    10.410457    -3.023124    2.514962    3.530852    12.333815    -1.530631    8.464506    -8.677922    10.829381    6.388748    -2.816355    3.974586    -6.809265    -45.452938    2.478783    -35.487862    7.302452    -40.796974    -104.109688    -9.768096    -32.508930    -11.091842    -12.950447    3.303809    10.497293    38.600548    -7.296094    93.157005    4.118860    -16.091261    30.108242    13.113652    -12.357985    41.250603    15.617276    -12.533617    1.262827    -12.588622    19.794235    -7.543017    -6.552528    -2.966660    41.155602    0.000000    0.000000    0.000000    -14.929962    3.975658    8.877964    1.195494    24.950504    5.764299    7.154764    -26.222713    9.875558    0.000000    0.000000    0.000000    
1.388340    156.385086    -15.422619    0.476128    -5.678542    -33.885880    6.323204    -0.315188    10.420326    -3.037128    2.491872    3.533855    12.403469    -1.520600    8.476446    -8.743279    10.811845    6.386347    -2.806082    3.985662    -6.803687    -45.475578    2.487126    -35.499725    7.272583    -40.783764    -104.162300    -9.775075    -32.520264    -11.070159    -12.939969    3.287324    10.468345    38.605545    -7.250039    93.170586    4.111679    -16.076439    30.089748    13.098163    -12.350092    41.219650    15.611198    -12.527471    1.244692    -12.569512    19.752148    -7.539942    -6.580632    -2.947499    41.159878    0.000000    0.000000    0.000000    -14.917225    3.974479    8.893110    1.210834    24.941856    5.720398    7.123084    -26.204424    9.856741    0.000000    0.000000    0.000000    
1.359881    156.406479    -15.428467    0.476635    -5.654999    -33.866158    6.320494    -0.314704    10.422688    -3.038768    2.455516    3.533725    12.399401    -1.512617    8.472513    -8.710695    10.800200    6.384453    -2.803451    3.981709    -6.798189    -45.503563    2.491873    -35.491539    7.234190    -40.744789    -104.219376    -9.756641    -32.512688    -11.061655    -12.935951    3.280596    10.464324    38.602123    -7.224352    93.169418    4.120313    -16.075558    30.071270    13.074678    -12.361112    41.207222    15.625154    -12.535395    1.199966    -12.572222    19.708496    -7.470558    -6.613216    -2.914549    41.135189    0.000000    0.000000    0.000000    -14.882859    3.968288    8.885366    1.203012    24.931414    5.704268    7.127955    -26.163881    9.852332    0.000000    0.000000    0.000000    
1.359627    156.417007    -15.425071    0.487251    -5.611150    -33.819664    6.364184    -0.339414    10.413136    -3.087342    2.434227    3.530524    12.412881    -1.505989    8.466053    -8.702253    10.780622    6.375114    -2.790223    3.985089    -6.791032    -45.525974    2.517637    -35.506393    7.216941    -40.744213    -104.261917    -9.758038    -32.526905    -11.032945    -12.937961    3.266405    10.446620    38.591179    -7.188941    93.172249    4.112757    -16.087132    30.041370    13.075064    -12.370529    41.200699    15.624218    -12.588154    1.147627    -12.559090    19.694807    -7.426393    -6.625743    -2.900874    41.114227    0.000000    0.000000    0.000000    -14.872353    3.951341    8.852210    1.234783    24.906199    5.709071    7.089052    -26.134777    9.806532    0.000000    0.000000    0.000000    
